<svg viewBox="0 0 172 39" fill="none" xmlns="http://www.w3.org/2000/svg"><path d="M12.43 12.08h-8.5c.06 3.01 1.81 4.79 4.35 4.79 1.24 0 2.46-.41 3.67-1.17l1.04 2.02c-2 1.17-3.64 1.64-5.51 1.64-2.09 0-3.81-.7-5.14-1.99C.87 15.94 0 13.8 0 11.47c0-2.16.79-4.12 2.09-5.44 1.27-1.26 2.99-1.99 5.02-1.99 2.51 0 4.29 1.05 5.25 3.22.48 1.11.76 2.46.79 4.33 0 .15 0 .5-.73.5l.01-.01ZM9.8 9.42c-.14-2.05-1.02-3.3-2.71-3.3-1.84 0-2.99 1.43-3.11 4h5.84c0-.17-.03-.55-.03-.7h.01Z" fill="#07A6DE"></path><path d="M25.93 19.01v-8.36c0-1.46-.11-2.14-.45-2.75-.45-.85-1.21-1.23-2.29-1.23-1.38 0-2.43.61-2.91 1.78-.25.61-.34 1.29-.34 2.66V19h-3.75V0h3.75v6.29c1.44-1.58 2.85-2.25 4.8-2.25 2.2 0 3.81.96 4.49 2.75.34.87.42 1.66.42 3.92v8.3h-3.73.01ZM45.01 12.08h-8.5c.06 3.01 1.81 4.79 4.35 4.79 1.24 0 2.46-.41 3.67-1.17l1.04 2.02c-2 1.17-3.64 1.64-5.51 1.64-2.09 0-3.81-.7-5.14-1.99-1.47-1.43-2.34-3.57-2.34-5.9 0-2.16.79-4.12 2.09-5.44 1.27-1.26 2.99-1.99 5.03-1.99 2.51 0 4.29 1.05 5.25 3.22.48 1.11.76 2.46.79 4.33 0 .15 0 .5-.73.5v-.01Zm-2.62-2.66c-.14-2.05-1.02-3.3-2.71-3.3-1.83 0-2.99 1.43-3.11 4h5.84c0-.17-.03-.55-.03-.7h.01ZM56.44 19.01c-.25-.73-.31-.91-.34-1.96-1.5 1.84-3.16 2.31-4.52 2.31-2.23 0-4.07-1.78-4.07-4.24 0-1.81.99-3.24 2.57-4.21.9-.56 2.37-1.11 3.76-1.46.51-.12 1.83-.47 2.34-.56-.34-1.55-1.07-2.63-2.85-2.63-1.18 0-2.31.5-3.56 1.58l-1.21-1.81c1.69-1.37 3.44-1.99 5.59-1.99s3.78.64 4.74 1.99c.68.96.93 1.78.93 4.41v3.92c0 2.63.08 3.3.56 4.65h-3.95.01Zm-.25-7.92c-.48.09-.93.23-1.5.38-1.86.47-3.59 1.29-3.59 3.13 0 1.26.85 2.16 1.92 2.16 1.47 0 2.54-1.17 2.85-2.16.17-.53.37-1.31.34-2.1 0 0-.03-1.17-.03-1.4l.01-.01ZM63.62 19.01v-19h3.73v19h-3.73ZM76.03 19.36c-1.64 0-2.88-.61-3.61-1.69-.56-.85-.71-1.52-.71-3.77V6.39h-1.98V4.4h1.98V.02h3.73V4.4h3.7v1.99h-3.7v6.72c0 2.92.51 3.92 1.98 3.92.59 0 1.19-.15 1.78-.47l.65 1.87c-1.27.61-2.48.94-3.81.94l-.01-.01ZM91.6 19.01v-8.36c0-1.46-.11-2.14-.45-2.75-.45-.85-1.21-1.23-2.29-1.23-1.38 0-2.43.61-2.91 1.78-.25.61-.34 1.29-.34 2.66V19h-3.75V0h3.75v6.29c1.44-1.58 2.85-2.25 4.8-2.25 2.2 0 3.81.96 4.49 2.75.34.87.42 1.66.42 3.92v8.3H91.6Z" fill="#004E89"></path><path d="M102.51 19.36c-1.84 0-3.22-.5-4.69-1.69l1.21-2.05c1.16 1.02 2.03 1.46 3.02 1.46 1.18 0 2-.7 2-1.78 0-.96-.45-1.46-2.4-2.92-1.47-1.11-3.05-2.22-3.05-4.3 0-2.4 2.03-4.03 4.83-4.03a7.4 7.4 0 0 1 4.04 1.2l-1.1 1.84c-.74-.52-1.55-.82-2.37-.82-1.02 0-1.75.61-1.75 1.43 0 .76.51 1.26 1.95 2.37 2.88 2.16 3.61 3.1 3.61 4.91 0 2.6-2.23 4.38-5.31 4.38h.01ZM120.22 19.01v-1.96c-1.41 1.61-2.85 2.31-4.83 2.31-2.2 0-3.78-.94-4.46-2.72-.34-.88-.42-1.73-.42-3.95v-8.3h3.73v8.36c0 1.46.11 2.13.45 2.75.45.85 1.21 1.23 2.29 1.23 1.38 0 2.37-.64 2.88-1.81.25-.61.37-1.26.37-2.66V4.4h3.73v14.61H120.22ZM127.96 19.01V4.4h3.73v14.61h-3.73ZM139.01 19.36c-1.83 0-3.22-.5-4.69-1.69l1.21-2.05c1.16 1.02 2.03 1.46 3.02 1.46 1.18 0 2-.7 2-1.78 0-.96-.45-1.46-2.4-2.92-1.47-1.11-3.05-2.22-3.05-4.3 0-2.4 2.03-4.03 4.83-4.03a7.4 7.4 0 0 1 4.04 1.2l-1.1 1.84c-.73-.52-1.55-.82-2.37-.82-1.02 0-1.75.61-1.75 1.43 0 .76.51 1.26 1.95 2.37 2.88 2.16 3.61 3.1 3.61 4.91 0 2.6-2.23 4.38-5.31 4.38h.01ZM150.7 19.36c-1.84 0-3.22-.5-4.69-1.69l1.21-2.05c1.16 1.02 2.03 1.46 3.02 1.46 1.18 0 2-.7 2-1.78 0-.96-.45-1.46-2.4-2.92-1.47-1.11-3.05-2.22-3.05-4.3 0-2.4 2.03-4.03 4.83-4.03a7.4 7.4 0 0 1 4.04 1.2l-1.1 1.84c-.73-.52-1.55-.82-2.37-.82-1.02 0-1.75.61-1.75 1.43 0 .76.51 1.26 1.95 2.37 2.88 2.16 3.62 3.1 3.62 4.91 0 2.6-2.23 4.38-5.31 4.38ZM170.38 12.08h-8.5c.06 3.01 1.81 4.79 4.35 4.79 1.24 0 2.46-.41 3.67-1.17l1.04 2.02c-2 1.17-3.64 1.64-5.5 1.64-2.09 0-3.81-.7-5.14-1.99-1.47-1.43-2.35-3.57-2.35-5.9 0-2.16.79-4.12 2.09-5.44 1.27-1.26 2.99-1.99 5.03-1.99 2.51 0 4.29 1.05 5.25 3.22.48 1.11.76 2.46.79 4.33 0 .15 0 .5-.73.5v-.01Zm-2.62-2.66c-.14-2.05-1.02-3.3-2.71-3.3-1.83 0-2.99 1.43-3.11 4h5.85c0-.17-.03-.55-.03-.7Z" fill="#07A6DE"></path><path d="M15.8 29.67c.33.2.69.27 1.08.27.53 0 .95-.23.95-.85 0-.49-.37-.72-.81-.95l-.38-.2c-.45-.25-.81-.53-.81-1.15 0-.85.75-1.21 1.51-1.21.33 0 .62.05.9.17l-.06.5c-.25-.14-.55-.2-.83-.2-.49 0-.95.17-.95.73 0 .38.28.6.65.8l.38.2c.53.28.97.57.97 1.28 0 .88-.72 1.34-1.52 1.34-.4 0-.79-.06-1.15-.22l.06-.52.01.01ZM19.96 30.33l-1.11-3.49h.55l.89 3.01.9-3.01h.61l.9 3.01.88-3.01h.49l-1.08 3.49h-.62l-.89-3-.9 3h-.62ZM24.83 26.06v-.61h.51v.61h-.51Zm0 4.27v-3.49h.51v3.49h-.51ZM26.28 29.77c.28.15.54.22.85.22.39 0 .67-.19.67-.58 0-.85-1.51-.6-1.51-1.67 0-.7.58-.97 1.13-.97.29 0 .55.06.79.15l-.07.44c-.22-.1-.47-.17-.71-.17-.27 0-.62.1-.62.53 0 .7 1.52.48 1.52 1.65 0 .67-.57 1.04-1.18 1.04-.34 0-.64-.04-.92-.16l.06-.48h-.01ZM29.1 29.77c.28.15.54.22.85.22.39 0 .67-.19.67-.58 0-.85-1.51-.6-1.51-1.67 0-.7.58-.97 1.13-.97.29 0 .55.06.79.15l-.07.44c-.22-.1-.47-.17-.71-.17-.27 0-.62.1-.62.53 0 .7 1.52.48 1.52 1.65 0 .67-.57 1.04-1.18 1.04-.34 0-.64-.04-.92-.16l.06-.48h-.01ZM37.23 30.19c-.31.16-.77.21-1.11.21-1.48 0-2.4-.95-2.4-2.41 0-1.46.98-2.41 2.4-2.41.34 0 .79.05 1.1.18l-.04.5c-.3-.14-.7-.2-1.03-.2-1.16 0-1.85.83-1.85 1.93s.67 1.93 1.84 1.93c.36 0 .72-.04 1.05-.2l.04.47ZM37.85 28.57c0-1 .6-1.8 1.63-1.8 1.09 0 1.63.77 1.63 1.8s-.55 1.83-1.63 1.83c-.27 0-.51-.05-.71-.14-.61-.29-.92-.93-.92-1.69Zm1.63 1.41c.76 0 1.09-.74 1.09-1.41 0-.67-.3-1.37-1.09-1.37s-1.08.7-1.08 1.37c0 .34.08.69.25.96.17.26.45.45.83.45ZM42.04 30.33v-2.67c0-.27 0-.55-.04-.82h.47l.02.6c.23-.45.58-.67 1.04-.67.58 0 .92.36 1.02.73.17-.43.61-.73 1.06-.73.71 0 1.09.51 1.09 1.18v2.37h-.51v-2.28c0-.47-.17-.84-.69-.84-.64 0-.87.63-.87 1.24v1.88h-.51v-2.28c0-.47-.16-.84-.69-.84-.64 0-.88.63-.88 1.24v1.88h-.51v.01ZM47.82 31.84v-3.83c0-.41-.01-.78-.04-1.17h.48l.03.61c.19-.41.64-.68 1.11-.68 1.06 0 1.41.88 1.41 1.8s-.38 1.83-1.42 1.83c-.46 0-.89-.23-1.06-.64v2.08h-.51Zm1.48-1.87c.78 0 .97-.76.97-1.4 0-.64-.18-1.37-.97-1.37-.73 0-.99.75-.99 1.37 0 .31.06.65.21.93.16.27.41.47.78.47ZM52.1 28.65c0 .67.36 1.34 1.23 1.34.34 0 .7-.1.96-.27l.02.46c-.3.15-.65.22-.98.22-1.2 0-1.76-.79-1.76-1.83 0-.89.51-1.8 1.55-1.8s1.39.87 1.39 1.79v.08h-2.42l.01.01Zm1.92-.38c-.04-.48-.21-1.09-.89-1.09s-1.01.59-1.03 1.09h1.92ZM57.01 30.3c-.18.08-.38.11-.57.11-.71 0-.81-.52-.81-1.16v-2.01h-.66v-.4h.66v-.78l.5-.17v.96h.79v.4h-.79v2.14c0 .31.08.58.45.58.14 0 .26-.04.39-.09l.03.43.01-.01ZM58.03 28.65c0 .67.36 1.34 1.23 1.34.34 0 .7-.1.96-.27l.02.46c-.3.15-.65.22-.98.22-1.21 0-1.77-.79-1.77-1.83 0-.89.51-1.8 1.55-1.8s1.39.87 1.39 1.79v.08h-2.42l.02.01Zm1.92-.38c-.03-.48-.21-1.09-.89-1.09s-1.01.59-1.03 1.09h1.92ZM61.31 30.33v-2.67c0-.27 0-.55-.04-.82h.47l.02.6c.25-.45.62-.67 1.13-.67.9 0 1.17.59 1.17 1.39v2.16h-.5v-2.07c0-.55-.11-1.06-.78-1.06-.73 0-.95.63-.95 1.25v1.88h-.51l-.01.01ZM67.55 30.27c-.3.1-.59.13-.9.13-1.07 0-1.67-.82-1.67-1.83 0-1.01.65-1.8 1.72-1.8.29 0 .58.06.85.15l-.04.46c-.22-.1-.48-.17-.73-.17-.84 0-1.25.59-1.25 1.37 0 .74.41 1.41 1.22 1.41.27 0 .53-.06.77-.16l.04.46-.01-.02ZM68.64 28.65c0 .67.36 1.34 1.23 1.34.34 0 .7-.1.96-.27l.02.46c-.3.15-.65.22-.98.22-1.21 0-1.77-.79-1.77-1.83 0-.89.51-1.8 1.55-1.8s1.39.87 1.39 1.79v.08h-2.42l.02.01Zm1.92-.38c-.03-.48-.21-1.09-.89-1.09s-1.01.59-1.03 1.09h1.92ZM75.64 30.33l-.02-.56c-.2.45-.64.64-1.09.64-.62 0-1.14-.33-1.14-1.04 0-.9.78-1.16 1.81-1.16h.39v-.17c0-.53-.2-.86-.78-.86-.36 0-.69.1-.99.29l-.04-.46c.3-.15.72-.25 1.05-.25.88 0 1.27.43 1.27 1.3v1.51c0 .26 0 .5.04.74h-.5v.02Zm-.31-1.75c-.65 0-1.42.07-1.42.77 0 .47.33.64.67.64.74 0 1-.56 1-1.21v-.21h-.26l.01.01ZM77.21 30.33v-2.67c0-.27 0-.55-.04-.82h.47l.02.6c.25-.45.62-.67 1.13-.67.9 0 1.17.59 1.17 1.39v2.16h-.5v-2.07c0-.55-.11-1.06-.78-1.06-.73 0-.95.63-.95 1.25v1.88h-.51l-.01.01ZM83.45 30.33l-.04-.58c-.22.45-.61.66-1.09.66-1.04 0-1.42-.94-1.42-1.83 0-.89.39-1.8 1.44-1.8.44 0 .88.25 1.05.66v-2.15h.51v3.94c0 .38.01.74.04 1.11h-.48l-.01-.01Zm-1.04-.36c.74 0 .98-.78.98-1.39 0-.61-.26-1.37-.99-1.37-.79 0-.97.73-.97 1.37 0 .32.05.67.2.94.15.26.38.46.78.46v-.01ZM90.17 30.19c-.31.16-.77.21-1.11.21-1.48 0-2.4-.95-2.4-2.41 0-1.46.98-2.41 2.4-2.41.34 0 .79.05 1.1.18l-.04.5c-.3-.14-.7-.2-1.03-.2-1.16 0-1.85.83-1.85 1.93s.67 1.93 1.84 1.93c.36 0 .72-.04 1.05-.2l.04.47ZM90.78 28.57c0-1 .6-1.8 1.63-1.8 1.09 0 1.63.77 1.63 1.8s-.55 1.83-1.63 1.83c-.27 0-.51-.05-.71-.14-.61-.29-.92-.93-.92-1.69Zm1.63 1.41c.76 0 1.09-.74 1.09-1.41 0-.67-.3-1.37-1.09-1.37s-1.08.7-1.08 1.37c0 .34.08.69.25.96.17.26.45.45.83.45ZM94.79 28.57c0-1 .6-1.8 1.63-1.8 1.09 0 1.63.77 1.63 1.8s-.55 1.83-1.63 1.83c-.27 0-.51-.05-.71-.14-.61-.29-.92-.93-.92-1.69Zm1.63 1.41c.76 0 1.09-.74 1.09-1.41 0-.67-.3-1.37-1.09-1.37s-1.08.7-1.08 1.37c0 .34.08.69.25.96.17.26.45.45.83.45ZM98.98 30.33v-2.67c0-.27 0-.55-.04-.82h.47l.03.66c.13-.36.5-.73.92-.73.1 0 .19 0 .29.03l-.03.51a.903.903 0 0 0-.28-.04c-.71 0-.86.78-.86 1.33v1.73h-.51.01ZM103.72 30.33l-.04-.58c-.22.45-.61.66-1.09.66-1.04 0-1.42-.94-1.42-1.83 0-.89.39-1.8 1.44-1.8.44 0 .88.25 1.05.66v-2.15h.51v3.94c0 .38.01.74.04 1.11h-.48l-.01-.01Zm-1.04-.36c.74 0 .98-.78.98-1.39 0-.61-.26-1.37-.99-1.37-.79 0-.97.73-.97 1.37 0 .32.05.67.2.94.15.26.38.46.78.46v-.01ZM105.29 26.06v-.61h.51v.61h-.51Zm0 4.27v-3.49h.51v3.49h-.51ZM106.92 30.33v-2.67c0-.27 0-.55-.04-.82h.47l.02.6c.25-.45.62-.67 1.13-.67.9 0 1.17.59 1.17 1.39v2.16h-.5v-2.07c0-.55-.11-1.06-.79-1.06-.73 0-.95.63-.95 1.25v1.88h-.51v.01ZM112.76 30.33l-.02-.56c-.2.45-.64.64-1.08.64-.62 0-1.14-.33-1.14-1.04 0-.9.78-1.16 1.81-1.16h.39v-.17c0-.53-.2-.86-.78-.86-.36 0-.69.1-.99.29l-.04-.46c.3-.15.72-.25 1.05-.25.88 0 1.27.43 1.27 1.3v1.51c0 .26 0 .5.04.74h-.5l-.01.02Zm-.31-1.75c-.65 0-1.41.07-1.41.77 0 .47.33.64.67.64.74 0 1-.56 1-1.21v-.21h-.26v.01ZM115.95 30.3c-.18.08-.38.11-.57.11-.71 0-.81-.52-.81-1.16v-2.01h-.66v-.4h.66v-.78l.5-.17v.96h.79v.4h-.79v2.14c0 .31.08.58.45.58.14 0 .26-.04.39-.09l.03.43.01-.01ZM116.72 26.06v-.61h.51v.61h-.51Zm0 4.27v-3.49h.51v3.49h-.51ZM118.17 28.57c0-1 .6-1.8 1.63-1.8 1.09 0 1.63.77 1.63 1.8s-.55 1.83-1.63 1.83c-.27 0-.51-.05-.71-.14-.61-.29-.92-.93-.92-1.69Zm1.63 1.41c.76 0 1.09-.74 1.09-1.41 0-.67-.3-1.37-1.09-1.37s-1.08.7-1.08 1.37c0 .34.08.69.25.96.17.26.45.45.83.45ZM122.35 30.33v-2.67c0-.27 0-.55-.04-.82h.47l.02.6c.25-.45.62-.67 1.13-.67.9 0 1.17.59 1.17 1.39v2.16h-.5v-2.07c0-.55-.11-1.06-.79-1.06-.73 0-.95.63-.95 1.25v1.88h-.51v.01ZM131.39 30.19c-.31.16-.77.21-1.11.21-1.48 0-2.4-.95-2.4-2.41 0-1.46.98-2.41 2.4-2.41.34 0 .79.05 1.1.18l-.04.5c-.3-.14-.7-.2-1.03-.2-1.16 0-1.85.83-1.85 1.93s.67 1.93 1.84 1.93c.36 0 .72-.04 1.05-.2l.04.47ZM132.53 28.65c0 .67.36 1.34 1.23 1.34.34 0 .7-.1.96-.27l.02.46c-.3.15-.65.22-.98.22-1.2 0-1.76-.79-1.76-1.83 0-.89.51-1.8 1.55-1.8s1.39.87 1.39 1.79v.08h-2.42l.01.01Zm1.92-.38c-.04-.48-.21-1.09-.89-1.09s-1.01.59-1.03 1.09h1.92ZM135.8 30.33v-2.67c0-.27 0-.55-.04-.82h.47l.02.6c.25-.45.62-.67 1.13-.67.9 0 1.17.59 1.17 1.39v2.16h-.5v-2.07c0-.55-.11-1.06-.79-1.06-.73 0-.95.63-.95 1.25v1.88h-.51v.01ZM141.28 30.3c-.18.08-.38.11-.57.11-.71 0-.81-.52-.81-1.16v-2.01h-.66v-.4h.66v-.78l.5-.17v.96h.79v.4h-.79v2.14c0 .31.08.58.45.58.14 0 .26-.04.39-.09l.03.43.01-.01ZM142.06 30.33v-2.67c0-.27 0-.55-.04-.82h.47l.03.66c.13-.36.5-.73.92-.73.1 0 .19 0 .29.03l-.03.51a.903.903 0 0 0-.28-.04c-.71 0-.86.78-.86 1.33v1.73h-.51.01ZM144.73 28.65c0 .67.36 1.34 1.23 1.34.34 0 .7-.1.96-.27l.02.46c-.3.15-.65.22-.98.22-1.2 0-1.76-.79-1.76-1.83 0-.89.51-1.8 1.55-1.8s1.39.87 1.39 1.79v.08h-2.42l.01.01Zm1.92-.38c-.04-.48-.21-1.09-.89-1.09s-1.01.59-1.03 1.09h1.92ZM15.7 36.97c0-1 .59-1.8 1.63-1.8 1.09 0 1.63.77 1.63 1.8s-.55 1.83-1.63 1.83c-.27 0-.51-.05-.71-.14-.61-.29-.92-.93-.92-1.69Zm1.63 1.41c.76 0 1.08-.74 1.08-1.41 0-.67-.3-1.37-1.08-1.37s-1.09.7-1.09 1.37c0 .34.08.69.25.96.18.26.45.45.83.45h.01ZM20.14 38.73v-3.08h-.68v-.41h.68v-.45c0-.5.08-1.18.94-1.18.13 0 .33 0 .45.07l-.04.42a.789.789 0 0 0-.34-.06c-.43 0-.5.34-.5.74v.47h.79v.41h-.78v3.08h-.51l-.01-.01ZM25.57 38.7c-.17.08-.38.11-.57.11-.71 0-.81-.52-.81-1.16v-2.01h-.66v-.4h.66v-.78l.5-.17v.96h.79v.4h-.79v2.14c0 .31.08.58.45.58.14 0 .26-.04.39-.09l.03.43.01-.01ZM26.35 38.73v-5.05h.51v2.15c.22-.44.58-.66 1.08-.66.85 0 1.16.59 1.16 1.39v2.16h-.5v-2.07c0-.55-.11-1.05-.78-1.05-.72 0-.95.62-.95 1.24v1.88h-.51l-.01.01ZM30.55 37.05c0 .67.36 1.34 1.23 1.34.34 0 .7-.1.96-.27l.02.46c-.3.15-.65.22-.98.22-1.2 0-1.76-.79-1.76-1.83 0-.89.51-1.8 1.55-1.8s1.39.87 1.39 1.79v.08h-2.42l.01.01Zm1.92-.38c-.04-.48-.21-1.09-.89-1.09s-1.01.59-1.03 1.09h1.92ZM38.93 38.59c-.31.16-.77.21-1.11.21-1.48 0-2.4-.95-2.4-2.41 0-1.46.98-2.41 2.4-2.41.34 0 .79.05 1.1.18l-.04.5c-.3-.14-.7-.2-1.03-.2-1.16 0-1.85.83-1.85 1.93s.67 1.93 1.84 1.93c.36 0 .72-.04 1.05-.2l.04.47ZM39.55 36.97c0-1 .59-1.8 1.63-1.8 1.09 0 1.63.77 1.63 1.8s-.55 1.83-1.63 1.83c-.27 0-.51-.05-.71-.14-.61-.29-.92-.93-.92-1.69Zm1.63 1.41c.76 0 1.08-.74 1.08-1.41 0-.67-.3-1.37-1.08-1.37s-1.09.7-1.09 1.37c0 .34.08.69.25.96.18.26.45.45.83.45h.01ZM43.74 38.73v-2.67c0-.27 0-.55-.04-.82h.47l.02.6c.25-.45.62-.67 1.13-.67.9 0 1.17.59 1.17 1.39v2.16h-.5v-2.07c0-.55-.11-1.06-.78-1.06-.73 0-.95.63-.95 1.25v1.88h-.51l-.01.01ZM47.88 38.73v-3.08h-.68v-.41h.68v-.45c0-.5.08-1.18.94-1.18.13 0 .33 0 .45.07l-.04.42a.789.789 0 0 0-.34-.06c-.43 0-.5.34-.5.74v.47h.79v.41h-.78v3.08h-.51l-.01-.01ZM50.15 37.05c0 .67.36 1.34 1.23 1.34.34 0 .7-.1.96-.27l.02.46c-.3.15-.65.22-.98.22-1.21 0-1.77-.79-1.77-1.83 0-.89.51-1.8 1.55-1.8s1.39.87 1.39 1.79v.08h-2.42l.02.01Zm1.92-.38c-.03-.48-.21-1.09-.89-1.09s-1.01.59-1.03 1.09h1.92ZM55.82 38.73l-.04-.58c-.22.45-.61.66-1.09.66-1.04 0-1.42-.94-1.42-1.83 0-.89.39-1.8 1.44-1.8.44 0 .88.25 1.05.66v-2.15h.51v3.94c0 .38.01.74.04 1.11h-.48l-.01-.01Zm-1.04-.36c.74 0 .98-.78.98-1.39 0-.61-.26-1.37-.99-1.37-.79 0-.97.73-.97 1.37 0 .32.05.67.2.94.15.26.38.46.78.46v-.01ZM57.71 37.05c0 .67.36 1.34 1.23 1.34.34 0 .7-.1.96-.27l.02.46c-.3.15-.65.22-.98.22-1.2 0-1.76-.79-1.76-1.83 0-.89.51-1.8 1.55-1.8s1.39.87 1.39 1.79v.08H57.7l.01.01Zm1.92-.38c-.04-.48-.21-1.09-.89-1.09s-1.01.59-1.03 1.09h1.92ZM60.99 38.73v-2.67c0-.27 0-.55-.04-.82h.47l.03.66c.13-.36.5-.73.92-.73.11 0 .19 0 .29.03l-.03.51a.903.903 0 0 0-.28-.04c-.71 0-.86.78-.86 1.33v1.73h-.51.01ZM65.34 38.73l-.02-.56c-.2.45-.64.64-1.09.64-.62 0-1.14-.33-1.14-1.04 0-.9.78-1.16 1.81-1.16h.39v-.17c0-.53-.2-.86-.78-.86-.36 0-.69.1-.99.29l-.04-.46c.3-.15.72-.25 1.05-.25.88 0 1.27.43 1.27 1.3v1.51c0 .26 0 .5.04.74h-.5v.02Zm-.31-1.75c-.65 0-1.42.07-1.42.77 0 .47.33.64.67.64.74 0 1-.56 1-1.21v-.21h-.26l.01.01ZM68.52 38.7c-.17.08-.38.11-.57.11-.71 0-.81-.52-.81-1.16v-2.01h-.66v-.4h.66v-.78l.5-.17v.96h.79v.4h-.79v2.14c0 .31.08.58.45.58.14 0 .26-.04.39-.09l.03.43.01-.01ZM69.3 34.46v-.61h.51v.61h-.51Zm0 4.27v-3.49h.51v3.49h-.51ZM70.74 36.97c0-1 .6-1.8 1.63-1.8 1.09 0 1.63.77 1.63 1.8s-.55 1.83-1.63 1.83c-.27 0-.51-.05-.71-.14-.61-.29-.92-.93-.92-1.69Zm1.63 1.41c.76 0 1.09-.74 1.09-1.41 0-.67-.3-1.37-1.09-1.37s-1.08.7-1.08 1.37c0 .34.08.69.25.96.17.26.45.45.83.45ZM74.93 38.73v-2.67c0-.27 0-.55-.04-.82h.47l.02.6c.25-.45.62-.67 1.13-.67.9 0 1.17.59 1.17 1.39v2.16h-.5v-2.07c0-.55-.11-1.06-.78-1.06-.73 0-.95.63-.95 1.25v1.88h-.51l-.01.01ZM82.57 38.73l-.02-.56c-.2.45-.64.64-1.08.64-.62 0-1.14-.33-1.14-1.04 0-.9.78-1.16 1.81-1.16h.39v-.17c0-.53-.2-.86-.79-.86-.36 0-.69.1-.99.29l-.04-.46c.3-.15.72-.25 1.05-.25.88 0 1.27.43 1.27 1.3v1.51c0 .26 0 .5.04.74h-.5v.02Zm-.31-1.75c-.65 0-1.42.07-1.42.77 0 .47.33.64.67.64.74 0 1-.56 1-1.21v-.21h-.26l.01.01ZM84.15 38.73v-2.67c0-.27 0-.55-.04-.82h.47l.02.6c.25-.45.62-.67 1.13-.67.9 0 1.17.59 1.17 1.39v2.16h-.5v-2.07c0-.55-.11-1.06-.78-1.06-.73 0-.95.63-.95 1.25v1.88h-.51l-.01.01ZM90.39 38.73l-.04-.58c-.22.45-.61.66-1.09.66-1.04 0-1.42-.94-1.42-1.83 0-.89.39-1.8 1.44-1.8.44 0 .88.25 1.05.66v-2.15h.51v3.94c0 .38.01.74.04 1.11h-.48l-.01-.01Zm-1.04-.36c.74 0 .98-.78.98-1.39 0-.61-.26-1.37-.99-1.37-.79 0-.97.73-.97 1.37 0 .32.05.67.2.94.15.26.38.46.78.46v-.01ZM95.38 38.7c-.18.08-.38.11-.57.11-.71 0-.81-.52-.81-1.16v-2.01h-.66v-.4H94v-.78l.5-.17v.96h.79v.4h-.79v2.14c0 .31.08.58.45.58.14 0 .26-.04.39-.09l.03.43.01-.01ZM96.15 38.73v-5.05h.51v2.15c.22-.44.58-.66 1.08-.66.85 0 1.16.59 1.16 1.39v2.16h-.5v-2.07c0-.55-.11-1.05-.79-1.05-.72 0-.95.62-.95 1.24v1.88h-.51v.01ZM100.35 37.05c0 .67.36 1.34 1.23 1.34.34 0 .7-.1.96-.27l.02.46c-.3.15-.65.22-.98.22-1.2 0-1.76-.79-1.76-1.83 0-.89.51-1.8 1.55-1.8s1.39.87 1.39 1.79v.08h-2.42l.01.01Zm1.92-.38c-.04-.48-.21-1.09-.89-1.09s-1.01.59-1.03 1.09h1.92ZM108.74 38.59c-.31.16-.77.21-1.11.21-1.48 0-2.4-.95-2.4-2.41 0-1.46.98-2.41 2.4-2.41.34 0 .79.05 1.1.18l-.04.5c-.3-.14-.7-.2-1.03-.2-1.16 0-1.85.83-1.85 1.93s.67 1.93 1.84 1.93c.36 0 .72-.04 1.05-.2l.04.47ZM111.67 38.73l-.02-.56c-.2.45-.64.64-1.08.64-.62 0-1.14-.33-1.14-1.04 0-.9.78-1.16 1.81-1.16h.39v-.17c0-.53-.2-.86-.78-.86-.36 0-.69.1-.99.29l-.04-.46c.3-.15.72-.25 1.05-.25.88 0 1.27.43 1.27 1.3v1.51c0 .26 0 .5.04.74h-.5l-.01.02Zm-.31-1.75c-.65 0-1.41.07-1.41.77 0 .47.33.64.67.64.74 0 1-.56 1-1.21v-.21h-.26v.01ZM113.25 38.73v-2.67c0-.27 0-.55-.04-.82h.47l.02.6c.25-.45.62-.67 1.13-.67.9 0 1.17.59 1.17 1.39v2.16h-.5v-2.07c0-.55-.11-1.06-.79-1.06-.73 0-.95.63-.95 1.25v1.88h-.51v.01ZM118.73 38.7c-.18.08-.38.11-.57.11-.71 0-.81-.52-.81-1.16v-2.01h-.66v-.4h.66v-.78l.5-.17v.96h.79v.4h-.79v2.14c0 .31.08.58.45.58.14 0 .26-.04.39-.09l.03.43.01-.01ZM119.22 36.97c0-1 .6-1.8 1.63-1.8 1.09 0 1.63.77 1.63 1.8s-.55 1.83-1.63 1.83c-.27 0-.51-.05-.71-.14-.61-.29-.92-.93-.92-1.69Zm1.63 1.41c.76 0 1.09-.74 1.09-1.41 0-.67-.3-1.37-1.09-1.37s-1.08.7-1.08 1.37c0 .34.08.69.25.96.17.26.45.45.83.45ZM123.41 38.73v-2.67c0-.27 0-.55-.04-.82h.47l.02.6c.25-.45.62-.67 1.13-.67.9 0 1.17.59 1.17 1.39v2.16h-.5v-2.07c0-.55-.11-1.06-.79-1.06-.73 0-.95.63-.95 1.25v1.88h-.51v.01ZM127.08 38.17c.28.15.54.22.85.22.39 0 .67-.19.67-.58 0-.85-1.51-.6-1.51-1.67 0-.7.58-.97 1.13-.97.29 0 .55.06.79.15l-.07.44c-.22-.1-.47-.17-.71-.17-.27 0-.62.1-.62.53 0 .7 1.52.48 1.52 1.65 0 .67-.57 1.04-1.18 1.04-.34 0-.64-.04-.92-.16l.06-.48h-.01Z" fill="#181716"></path></svg>